<?xml version="1.0" encoding="UTF-8" standalone="no" ?>
<!DOCTYPE svg PUBLIC "-//W3C//DTD SVG 1.1//EN" "http://www.w3.org/Graphics/SVG/1.1/DTD/svg11.dtd">
<svg xmlns="http://www.w3.org/2000/svg" xmlns:xlink="http://www.w3.org/1999/xlink" version="1.1" width="164" height="164" viewBox="0 0 164 164" xml:space="preserve">
<desc>Created with Fabric.js 5.3.0</desc>
<defs>
</defs>
<g transform="matrix(9.23 0 0 9.23 81.5 82)" id="MK-9k3MuWPnHdAoRIrIzh"  >
<path style="stroke: rgb(0,0,0); stroke-width: 0; stroke-dasharray: none; stroke-linecap: butt; stroke-dashoffset: 0; stroke-linejoin: miter; stroke-miterlimit: 4; fill: none; fill-rule: nonzero; opacity: 1;"  transform=" translate(0, 0)" d="M 0 -8.88407 C 4.90401 -8.88407 8.88407 -4.904 8.88407 0 C 8.88407 4.90401 4.904 8.88407 0 8.88407 C -4.90401 8.88407 -8.88407 4.904 -8.88407 0 C -8.88407 -4.90401 -4.904 -8.88407 0 -8.88407 z" stroke-linecap="round" />
</g>
<g transform="matrix(0.4493150685 0 0 0.4493150685 82 81.9693627451)" id="o7WQS7t6VvS_YA5LEujDD"  >
<path style="stroke: rgb(230,224,227); stroke-width: 0; stroke-dasharray: none; stroke-linecap: butt; stroke-dashoffset: 0; stroke-linejoin: miter; stroke-miterlimit: 4; fill: none; fill-rule: nonzero; opacity: 1;"  transform=" translate(-180, -182.5)" d="M 0 0 L 360 0 L 360 365 L 0 365 Z" stroke-linecap="round" />
</g>
<g transform="matrix(5.9094512195 0 0 5.9094512195 82.503712972 81.5)" id="Gop42lH3aNey_Lsj7g-5S"  >
<path style="stroke: rgb(0,0,0); stroke-width: 0; stroke-dasharray: none; stroke-linecap: butt; stroke-dashoffset: 0; stroke-linejoin: miter; stroke-miterlimit: 4; fill: none; fill-rule: nonzero; opacity: 1;"  transform=" translate(0, 0)" d="M 0 -8.88407 C 4.90401 -8.88407 8.88407 -4.904 8.88407 0 C 8.88407 4.90401 4.904 8.88407 0 8.88407 C -4.90401 8.88407 -8.88407 4.904 -8.88407 0 C -8.88407 -4.90401 -4.904 -8.88407 0 -8.88407 z" stroke-linecap="round" />
</g>
<g transform="matrix(1 0 0 1 82 82)" id="UNCA3DJG8ecyHMxnxIXI2"  >
<path style="stroke: rgb(0,0,0); stroke-width: 1; stroke-dasharray: none; stroke-linecap: butt; stroke-dashoffset: 0; stroke-linejoin: miter; stroke-miterlimit: 4; fill: rgb(255,255,255); fill-opacity: 0; fill-rule: nonzero; opacity: 1;"  transform=" translate(0, 0)" d="M 0 0" stroke-linecap="round" />
</g>
<g transform="matrix(1 0 0 1 82 82)" id="9IcFJdHEyi9EBO3A6wPLB"  >
<path style="stroke: rgb(0,0,0); stroke-width: 1; stroke-dasharray: none; stroke-linecap: butt; stroke-dashoffset: 0; stroke-linejoin: miter; stroke-miterlimit: 4; fill: rgb(255,255,255); fill-opacity: 0; fill-rule: nonzero; opacity: 1;"  transform=" translate(0, 0)" d="M 0 0" stroke-linecap="round" />
</g>
<g transform="matrix(1 0 0 1 82 82)" id="8g02f83nEk9POWJuHPPA-"  >
<path style="stroke: rgb(0,0,0); stroke-width: 1; stroke-dasharray: none; stroke-linecap: butt; stroke-dashoffset: 0; stroke-linejoin: miter; stroke-miterlimit: 4; fill: rgb(255,255,255); fill-opacity: 0; fill-rule: nonzero; opacity: 1;"  transform=" translate(0, 0)" d="M 0 0" stroke-linecap="round" />
</g>
<g transform="matrix(1 0 0 1 82 82)" id="RjaPt-0jw2yL8sN7dYGED"  >
<path style="stroke: rgb(0,0,0); stroke-width: 1; stroke-dasharray: none; stroke-linecap: butt; stroke-dashoffset: 0; stroke-linejoin: miter; stroke-miterlimit: 4; fill: rgb(255,255,255); fill-opacity: 0; fill-rule: nonzero; opacity: 1;"  transform=" translate(0, 0)" d="M 0 0 z" stroke-linecap="round" />
</g>
<g transform="matrix(1 0 0 1 82 82)" id="RYELT0tZxqovC6RGICjFh"  >
<path style="stroke: rgb(0,0,0); stroke-width: 1; stroke-dasharray: none; stroke-linecap: butt; stroke-dashoffset: 0; stroke-linejoin: miter; stroke-miterlimit: 4; fill: rgb(255,255,255); fill-opacity: 0; fill-rule: nonzero; opacity: 1;"  transform=" translate(0, 0)" d="M 0 0" stroke-linecap="round" />
</g>
<g transform="matrix(1 0 0 1 82 82)" id="qe6crCPNTQKQkVHOvZLO9"  >
<path style="stroke: rgb(0,0,0); stroke-width: 1; stroke-dasharray: none; stroke-linecap: butt; stroke-dashoffset: 0; stroke-linejoin: miter; stroke-miterlimit: 4; fill: rgb(255,255,255); fill-opacity: 0; fill-rule: nonzero; opacity: 1;"  transform=" translate(0, 0)" d="M 0 0" stroke-linecap="round" />
</g>
<g transform="matrix(1 0 0 1 82 82)" id="ZM2dh7F-JvmA8ffyVphAC"  >
<path style="stroke: rgb(0,0,0); stroke-width: 1; stroke-dasharray: none; stroke-linecap: butt; stroke-dashoffset: 0; stroke-linejoin: miter; stroke-miterlimit: 4; fill: rgb(255,255,255); fill-opacity: 0; fill-rule: nonzero; opacity: 1;"  transform=" translate(0, 0)" d="M 0 0" stroke-linecap="round" />
</g>
<g transform="matrix(1 0 0 1 102 82)" id="qtuCLIO6jfAh0xOE1aJ5a"  >
<path style="stroke: rgb(0,0,0); stroke-width: 1; stroke-dasharray: none; stroke-linecap: butt; stroke-dashoffset: 0; stroke-linejoin: miter; stroke-miterlimit: 4; fill: rgb(255,255,255); fill-opacity: 0; fill-rule: nonzero; opacity: 1;"  transform=" translate(0, 0)" d="M 0 0" stroke-linecap="round" />
</g>
<g transform="matrix(1 0 0 1 102 82)" id="bhbKPTAtikdz1crnNigpn"  >
<path style="stroke: rgb(0,0,0); stroke-width: 1; stroke-dasharray: none; stroke-linecap: butt; stroke-dashoffset: 0; stroke-linejoin: miter; stroke-miterlimit: 4; fill: rgb(255,255,255); fill-opacity: 0; fill-rule: nonzero; opacity: 1;"  transform=" translate(0, 0)" d="M 0 0" stroke-linecap="round" />
</g>
<g transform="matrix(1 0 0 1 102 82)" id="rQf1GKhMDwwDk5WE7XONl"  >
<path style="stroke: rgb(0,0,0); stroke-width: 1; stroke-dasharray: none; stroke-linecap: butt; stroke-dashoffset: 0; stroke-linejoin: miter; stroke-miterlimit: 4; fill: rgb(255,255,255); fill-opacity: 0; fill-rule: nonzero; opacity: 1;"  transform=" translate(0, 0)" d="M 0 0" stroke-linecap="round" />
</g>
<g transform="matrix(1 0 0 1 102 82)" id="E9ysW_GiCU--xZmvIJ_nD"  >
<path style="stroke: rgb(0,0,0); stroke-width: 1; stroke-dasharray: none; stroke-linecap: butt; stroke-dashoffset: 0; stroke-linejoin: miter; stroke-miterlimit: 4; fill: rgb(255,255,255); fill-opacity: 0; fill-rule: nonzero; opacity: 1;"  transform=" translate(0, 0)" d="M 0 0 z" stroke-linecap="round" />
</g>
<g transform="matrix(1 0 0 1 102 82)" id="zv1fr7plYG9hRE5J5ugxL"  >
<path style="stroke: rgb(0,0,0); stroke-width: 1; stroke-dasharray: none; stroke-linecap: butt; stroke-dashoffset: 0; stroke-linejoin: miter; stroke-miterlimit: 4; fill: rgb(255,255,255); fill-opacity: 0; fill-rule: nonzero; opacity: 1;"  transform=" translate(0, 0)" d="M 0 0" stroke-linecap="round" />
</g>
<g transform="matrix(1 0 0 1 102 82)" id="W3TPAafoLmLpYHVO_1IbC"  >
<path style="stroke: rgb(0,0,0); stroke-width: 1; stroke-dasharray: none; stroke-linecap: butt; stroke-dashoffset: 0; stroke-linejoin: miter; stroke-miterlimit: 4; fill: rgb(255,255,255); fill-opacity: 0; fill-rule: nonzero; opacity: 1;"  transform=" translate(0, 0)" d="M 0 0" stroke-linecap="round" />
</g>
<g transform="matrix(1 0 0 1 102 82)" id="qPif8jbqzJdlECnQcVJGX"  >
<path style="stroke: rgb(0,0,0); stroke-width: 1; stroke-dasharray: none; stroke-linecap: butt; stroke-dashoffset: 0; stroke-linejoin: miter; stroke-miterlimit: 4; fill: rgb(255,255,255); fill-opacity: 0; fill-rule: nonzero; opacity: 1;"  transform=" translate(0, 0)" d="M 0 0" stroke-linecap="round" />
</g>
<g transform="matrix(1.4113930361 0.8480504933 -0.0267384754 0.044500296 119.7352718945 14.3059371163)" id="j4ZK0GzmHd82y4uvfZRLl"  >
<path style="stroke: rgb(0,0,0); stroke-width: 1; stroke-dasharray: none; stroke-linecap: butt; stroke-dashoffset: 0; stroke-linejoin: miter; stroke-miterlimit: 4; fill: rgb(255,255,255); fill-opacity: 0; fill-rule: nonzero; opacity: 1;"  transform=" translate(0, 0)" d="M 0 -81.87469 L 0 81.87468" stroke-linecap="round" />
</g>
<g transform="matrix(0.8480504934 1.4113930361 -0.044500296 0.0267384754 149.0256186694 43.235104488)" id="Glbh0bnzeqLsgw1SsUqBS"  >
<path style="stroke: rgb(0,0,0); stroke-width: 1; stroke-dasharray: none; stroke-linecap: butt; stroke-dashoffset: 0; stroke-linejoin: miter; stroke-miterlimit: 4; fill: rgb(255,255,255); fill-opacity: 0; fill-rule: nonzero; opacity: 1;"  transform=" translate(0, 0.000005)" d="M 0 -81.87469 L 0 81.87468" stroke-linecap="round" />
</g>
<g transform="matrix(-0.8725535361 1.3963775522 -0.0440268676 -0.0275110403 149.0256186694 121.1985621834)" id="TmkNTGmF94JKOMjpOVBbZ"  >
<path style="stroke: rgb(0,0,0); stroke-width: 1; stroke-dasharray: none; stroke-linecap: butt; stroke-dashoffset: 0; stroke-linejoin: miter; stroke-miterlimit: 4; fill: rgb(255,255,255); fill-opacity: 0; fill-rule: nonzero; opacity: 1;"  transform=" translate(0, 0.000005)" d="M 0 -81.87469 L 0 81.87468" stroke-linecap="round" />
</g>
<g transform="matrix(-1.3963775522 0.8725535361 -0.0275110403 -0.0440268676 120.3042700019 150.5854104416)" id="1gcqgZ0VzA2kbTAhAt3yC"  >
<path style="stroke: rgb(0,0,0); stroke-width: 1; stroke-dasharray: none; stroke-linecap: butt; stroke-dashoffset: 0; stroke-linejoin: miter; stroke-miterlimit: 4; fill: rgb(255,255,255); fill-opacity: 0; fill-rule: nonzero; opacity: 1;"  transform=" translate(0, 0.000005)" d="M 0 -81.87469 L 0 81.87468" stroke-linecap="round" />
</g>
<g transform="matrix(-1.425978596 -0.8232891263 0.0259577658 -0.0449601691 41.7944728596 148.9025631319)" id="eY_I2Lj3NTm7yH4VJJgDg"  >
<path style="stroke: rgb(0,0,0); stroke-width: 1; stroke-dasharray: none; stroke-linecap: butt; stroke-dashoffset: 0; stroke-linejoin: miter; stroke-miterlimit: 4; fill: rgb(255,255,255); fill-opacity: 0; fill-rule: nonzero; opacity: 1;"  transform=" translate(0, 0.000005)" d="M 0 -81.87469 L 0 81.87468" stroke-linecap="round" />
</g>
<g transform="matrix(-0.8725535361 -1.3963775522 0.0440268676 -0.0275110403 14.2117065925 120.6634570026)" id="sApE-V8FzplQikB5MGPR1"  >
<path style="stroke: rgb(0,0,0); stroke-width: 1; stroke-dasharray: none; stroke-linecap: butt; stroke-dashoffset: 0; stroke-linejoin: miter; stroke-miterlimit: 4; fill: rgb(255,255,255); fill-opacity: 0; fill-rule: nonzero; opacity: 1;"  transform=" translate(0, 0.000005)" d="M 0 -81.87469 L 0 81.87468" stroke-linecap="round" />
</g>
<g transform="matrix(0.8232891263 -1.425978596 0.0449601691 0.0259577658 13.9340298936 43.8558417217)" id="GdbY86wdJ0SY1ZtoTx9Ax"  >
<path style="stroke: rgb(0,0,0); stroke-width: 1; stroke-dasharray: none; stroke-linecap: butt; stroke-dashoffset: 0; stroke-linejoin: miter; stroke-miterlimit: 4; fill: rgb(255,255,255); fill-opacity: 0; fill-rule: nonzero; opacity: 1;"  transform=" translate(0, 0.000005)" d="M 0 -81.87469 L 0 81.87468" stroke-linecap="round" />
</g>
<g transform="matrix(1.440129789 -0.7982769773 0.0251691491 0.045406347 42.4485195735 14.8258779268)" id="lgsWM1XAsX2DoTNjcbC18"  >
<path style="stroke: rgb(0,0,0); stroke-width: 1; stroke-dasharray: none; stroke-linecap: butt; stroke-dashoffset: 0; stroke-linejoin: miter; stroke-miterlimit: 4; fill: rgb(255,255,255); fill-opacity: 0; fill-rule: nonzero; opacity: 1;"  transform=" translate(0, 0.000005)" d="M 0 -81.87469 L 0 81.87468" stroke-linecap="round" />
</g>
<g transform="matrix(0 3.3931031916 -0.0876120491 0 156.2426337666 81.5)" id="2zf4tiNCscrNFEpwBOeFq"  >
<path style="stroke: rgb(0,0,0); stroke-width: 1; stroke-dasharray: none; stroke-linecap: butt; stroke-dashoffset: 0; stroke-linejoin: miter; stroke-miterlimit: 4; fill: rgb(255,255,255); fill-opacity: 0; fill-rule: nonzero; opacity: 1;"  transform=" translate(0, 0)" d="M 0 -81.87469 L 0 81.87468" stroke-linecap="round" />
</g>
<g transform="matrix(-3.3931031916 0 0 -0.0876120491 81.4115301344 156.6531149233)" id="v6gvBfiYSB414bvLRkFdS"  >
<path style="stroke: rgb(0,0,0); stroke-width: 1; stroke-dasharray: none; stroke-linecap: butt; stroke-dashoffset: 0; stroke-linejoin: miter; stroke-miterlimit: 4; fill: rgb(255,255,255); fill-opacity: 0; fill-rule: nonzero; opacity: 1;"  transform=" translate(0, 0.000005)" d="M 0 -81.87469 L 0 81.87468" stroke-linecap="round" />
</g>
<g transform="matrix(0 3.3931031916 -0.0876120491 0 6.7170149468 81.5)" id="vSmQ1UFUd405FO4Kg9Rhe"  >
<path style="stroke: rgb(0,0,0); stroke-width: 1; stroke-dasharray: none; stroke-linecap: butt; stroke-dashoffset: 0; stroke-linejoin: miter; stroke-miterlimit: 4; fill: rgb(255,255,255); fill-opacity: 0; fill-rule: nonzero; opacity: 1;"  transform=" translate(0, 0.000005)" d="M 0 -81.87469 L 0 81.87468" stroke-linecap="round" />
</g>
<g transform="matrix(-3.3931031916 0 0 -0.0876120491 81.4115301344 7.2170149468)" id="LrVeaxvA7EVVMqv2oRpMU"  >
<path style="stroke: rgb(0,0,0); stroke-width: 1; stroke-dasharray: none; stroke-linecap: butt; stroke-dashoffset: 0; stroke-linejoin: miter; stroke-miterlimit: 4; fill: rgb(255,255,255); fill-opacity: 0; fill-rule: nonzero; opacity: 1;"  transform=" translate(0, 0.000005)" d="M 0 -81.87469 L 0 81.87468" stroke-linecap="round" />
</g>
<g transform="matrix(1 0 0 1 122.3336944745 32.9286796044)" id="OwACvQ0g3afBb5YkgCWLO"  >
<path style="stroke: rgb(0,0,0); stroke-width: 1; stroke-dasharray: none; stroke-linecap: butt; stroke-dashoffset: 0; stroke-linejoin: miter; stroke-miterlimit: 4; fill: rgb(255,255,255); fill-opacity: 0; fill-rule: nonzero; opacity: 1;"  transform=" translate(0, 0)" d="M 0 0" stroke-linecap="round" />
</g>
<g transform="matrix(1 0 0 1 137.7581070746 35.8773451295)" id="99UlbAfY1WDKxFZ_SjY5l"  >
<path style="stroke: rgb(0,0,0); stroke-width: 1; stroke-dasharray: none; stroke-linecap: butt; stroke-dashoffset: 0; stroke-linejoin: miter; stroke-miterlimit: 4; fill: rgb(255,255,255); fill-opacity: 0; fill-rule: nonzero; opacity: 1;"  transform=" translate(0, 0)" d="M 0 0" stroke-linecap="round" />
</g>
</svg>